#!OML:ASF H:\LiuWeirdWalks\Patient Classification 1\Patient 1\Session 1\male.ASF
:FULLY-SPECIFIED
:DEGREES
1219
root 0.699857 17.8276 20.6581 2.5712 7.01 -8.22523
lowerback 2.51064 1.49407 4.61879
upperback 0.046689 2.1705 2.92291
thorax -1.30279 1.06527 0.338905
lowerneck -20.1042 1.32954 5.89455
upperneck 21.676 1.72872 -6.71957
head 10.3707 0.474201 -3.13391
rclavicle -3.83546e-014 4.52235e-015
rhumerus -34.9842 -4.80644 -82.4026
rradius 28.5552
rwrist -5.75225
rhand -18.8731 -3.57432
rfingers 7.12502
rthumb 7.42766 -33.4239
lclavicle -3.83546e-014 4.52235e-015
lhumerus -42.4673 2.17968 83.7595
lradius 37.9872
lwrist 16.3838
lhand -14.4593 -2.48825
lfingers 7.12502
lthumb 11.6862 27.1658
rfemur 11.4931 -3.42559 33.9368
rtibia 9.19571
rfoot -10.8112 -19.7366
rtoes -7.54218
lfemur -31.3264 -3.28708 -9.21555
ltibia 26.4902
lfoot -12.4793 7.5993
ltoes -19.563
1220
root 0.721092 17.8308 20.7211 2.60641 7.1334 -8.28491
lowerback 2.55994 1.55836 4.75951
upperback 0.0982895 2.26081 2.90998
thorax -1.26898 1.11052 0.243974
lowerneck -20.3733 1.21248 5.65588
upperneck 21.6923 1.60309 -6.62353
head 10.415 0.403939 -3.07957
rclavicle 1.37674e-014 -1.78658e-014
rhumerus -34.8926 -5.11783 -82.2319
rradius 28.6287
rwrist -5.7766
rhand -18.8464 -3.58858
rfingers 7.12502
rthumb 7.45338 -33.4373
lclavicle 1.37674e-014 -1.78658e-014
lhumerus -42.2305 2.02913 83.8807
lradius 37.7093
lwrist 16.2541
lhand -14.4097 -2.52614
lfingers 7.12502
lthumb 11.7341 27.1252
rfemur 11.7792 -3.55523 33.9178
rtibia 8.94977
rfoot -10.5837 -19.6017
rtoes -7.90815
lfemur -31.3392 -3.21199 -9.23492
ltibia 26.7187
lfoot -12.2186 7.3763
ltoes -19.5703
1221
root 0.743379 17.8342 20.7845 2.63941 7.22884 -8.38744
lowerback 2.62684 1.70084 5.01274
upperback 0.127177 2.46122 2.89856
thorax -1.25976 1.20942 0.0837314
lowerneck -20.6063 0.989829 5.256
upperneck 21.7167 1.36532 -6.44878
head 10.4465 0.279057 -2.98618
rclavicle 3.76448e-014 -8.74653e-015
rhumerus -34.8953 -5.58217 -81.9462
rradius 28.7431
rwrist -5.82141
rhand -18.7928 -3.62042
rfingers 7.12502
rthumb 7.50512 -33.4673
lclavicle 3.76448e-014 -8.74653e-015
lhumerus -41.9869 1.66509 84.1295
lradius 37.4155
lwrist 16.1458
lhand -14.3749 -2.53874
lfingers 7.12502
lthumb 11.7676 27.1107
rfemur 11.9969 -3.6549 33.9391
rtibia 8.84138
rfoot -10.4191 -19.4817
rtoes -8.26357
lfemur -31.3747 -3.12901 -9.20477
ltibia 27.0024
lfoot -11.9761 7.15826
ltoes -19.6126
1222
root 0.766588 17.8383 20.8494 2.67197 7.28954 -8.50585
lowerback 2.67908 1.92316 5.34801
upperback 0.154995 2.76949 2.88212
thorax -1.23327 1.36202 -0.12982
lowerneck -20.8301 0.664799 4.6896
upperneck 21.7592 1.02013 -6.18883
head 10.4761 0.101802 -2.85049
rclavicle 1.74092e-014 2.31584e-014
rhumerus -34.9595 -6.18389 -81.5576
rradius 28.8925
rwrist -5.90325
rhand -18.753 -3.64281
rfingers 7.12502
rthumb 7.5436 -33.4883
lclavicle 1.74092e-014 2.31584e-014
lhumerus -41.7132 1.10403 84.5014
lradius 37.1162
lwrist 16.0441
lhand -14.3534 -2.51926
lfingers 7.12502
lthumb 11.7883 27.129
rfemur 12.2296 -3.71823 33.9685
rtibia 8.71649
rfoot -10.2361 -19.3547
rtoes -8.63452
lfemur -31.3862 -3.03465 -9.15643
ltibia 27.2652
lfoot -11.7199 6.94234
ltoes -19.6714
1223
root 0.791902 17.832 20.9151 2.72115 7.31536 -8.59777
lowerback 2.70952 2.10125 5.62358
upperback 0.131375 3.01831 2.85741
thorax -1.24923 1.48371 -0.316926
lowerneck -20.8284 0.403322 4.262
upperneck 21.7503 0.744107 -5.99518
head 10.4528 -0.0368654 -2.74894
rclavicle 2.21614e-014 -3.97569e-016
rhumerus -35.1294 -6.60064 -81.2733
rradius 29.062
rwrist -6.01804
rhand -18.7077 -3.68639
rfingers 7.12502
rthumb 7.58732 -33.5303
lclavicle 2.21614e-014 -3.97569e-016
lhumerus -41.597 0.65336 84.7758
lradius 36.8591
lwrist 15.9446
lhand -14.3493 -2.51594
lfingers 7.12502
lthumb 11.7923 27.1321
rfemur 12.4443 -3.74314 33.9585
rtibia 8.63953
rfoot -10.0661 -19.2257
rtoes -9.05118
lfemur -31.409 -2.93324 -9.1417
ltibia 27.5194
lfoot -11.4447 6.72959
ltoes -19.7263
1224
root 0.817268 17.8374 20.9822 2.78459 7.30554 -8.6587
lowerback 2.72624 2.22946 5.81236
upperback 0.0961531 3.19777 2.83331
thorax -1.27518 1.57084 -0.45287
lowerneck -20.7438 0.219476 3.95878
upperneck 21.7311 0.551261 -5.85156
head 10.4174 -0.132 -2.67308
rclavicle -3.31101e-015 3.05134e-014
rhumerus -35.2914 -6.79267 -81.1122
rradius 29.224
rwrist -6.18789
rhand -18.698 -3.71994
rfingers 7.12502
rthumb 7.59669 -33.5635
lclavicle -3.31101e-015 3.05134e-014
lhumerus -41.5567 0.345154 84.9594
lradius 36.6565
lwrist 15.8553
lhand -14.3455 -2.48076
lfingers 7.12502
lthumb 11.796 27.167
rfemur 12.6131 -3.7303 33.9053
rtibia 8.62814
rfoot -9.89534 -19.0826
rtoes -9.52849
lfemur -31.3766 -2.83709 -9.157
ltibia 27.7239
lfoot -11.1842 6.53873
ltoes -19.792
1225
root 0.84362 17.8437 21.0506 2.86912 7.26404 -8.6668
lowerback 2.68548 2.12893 5.73442
upperback 0.0585823 3.06023 2.82806
thorax -1.30159 1.50158 -0.410276
lowerneck -20.4969 0.358735 4.19185
upperneck 21.6052 0.706019 -5.97799
head 10.3356 -0.0536591 -2.72975
rclavicle 5.14169e-014 1.71452e-015
rhumerus -35.3316 -6.3464 -81.3612
rradius 29.3203
rwrist -6.33823
rhand -18.6979 -3.74816
rfingers 7.12502
rthumb 7.59675 -33.5917
lclavicle 5.14169e-014 1.71452e-015
lhumerus -41.6856 0.647965 84.7551
lradius 36.5437
lwrist 15.7589
lhand -14.3473 -2.46721
lfingers 7.12502
lthumb 11.7942 27.1807
rfemur 12.723 -3.68352 33.7857
rtibia 8.72083
rfoot -9.74923 -18.9276
rtoes -10.0686
lfemur -31.3213 -2.74861 -9.22873
ltibia 27.8986
lfoot -10.9433 6.35674
ltoes -19.8614
1226
root 0.870656 17.8503 21.1207 2.95953 7.20306 -8.63922
lowerback 2.65469 2.02703 5.61377
upperback 0.0172756 2.92042 2.81058
thorax -1.33864 1.43117 -0.35701
lowerneck -20.2898 0.513868 4.46039
upperneck 21.5312 0.874956 -6.11069
head 10.2818 0.0330346 -2.79444
rclavicle -2.15091e-015 -3.23025e-015
rhumerus -35.357 -5.83344 -81.6499
rradius 29.3959
rwrist -6.517
rhand -18.7276 -3.74799
rfingers 7.12502
rthumb 7.56806 -33.5926
lclavicle -2.15091e-015 -3.23025e-015
lhumerus -41.823 0.95412 84.5358
lradius 36.4487
lwrist 15.6725
lhand -14.3693 -2.48765
lfingers 7.12502
lthumb 11.773 27.1615
rfemur 12.8903 -3.6161 33.6163
rtibia 8.70825
rfoot -9.52399 -18.7324
rtoes -10.6546
lfemur -31.2067 -2.66419 -9.34121
ltibia 27.9872
lfoot -10.7072 6.16465
ltoes -19.9192
1227
root 0.898003 17.8573 21.192 3.05562 7.12109 -8.58208
lowerback 2.61362 1.89465 5.42403
upperback -0.0130396 2.73645 2.79235
thorax -1.36316 1.33971 -0.264158
lowerneck -20.1024 0.726103 4.82613
upperneck 21.4419 1.10634 -6.29789
head 10.2318 0.149792 -2.88619
rclavicle -6.39256e-015 -1.07282e-014
rhumerus -35.3282 -5.20582 -82.0058
rradius 29.4363
rwrist -6.65544
rhand -18.7633 -3.7144
rfingers 7.12502
rthumb 7.53362 -33.5602
lclavicle -6.39256e-015 -1.07282e-014
lhumerus -41.9653 1.35568 84.2566
lradius 36.37
lwrist 15.5801
lhand -14.391 -2.53899
lfingers 7.12502
lthumb 11.7521 27.1113
rfemur 13.0185 -3.52847 33.4099
rtibia 8.77924
rfoot -9.32013 -18.5201
rtoes -11.2636
lfemur -31.0714 -2.58687 -9.48322
ltibia 28.06
lfoot -10.5023 5.9707
ltoes -19.9502
1228
root 0.925549 17.8644 21.2644 3.14492 7.02893 -8.52355
lowerback 2.62146 1.91793 5.35387
upperback -0.0213951 2.76593 2.76628
thorax -1.37683 1.3544 -0.253491
lowerneck -20.145 0.750902 4.85796
upperneck 21.4287 1.13854 -6.33702
head 10.2376 0.161884 -2.90107
rclavicle -6.27958e-015 -5.22866e-014
rhumerus -35.3122 -4.94144 -82.0989
rradius 29.5034
rwrist -6.77173
rhand -18.808 -3.66182
rfingers 7.12502
rthumb 7.49046 -33.5092
lclavicle -6.27958e-015 -5.22866e-014
lhumerus -41.9504 1.38337 84.2498
lradius 36.258
lwrist 15.492
lhand -14.4122 -2.55815
lfingers 7.12502
lthumb 11.7316 27.0933
rfemur 13.1217 -3.43288 33.1999
rtibia 8.91606
rfoot -9.14131 -18.2939
rtoes -11.8598
lfemur -30.9183 -2.51213 -9.62494
ltibia 28.1251
lfoot -10.3239 5.76765
ltoes -19.9496
1229
root 0.952983 17.8715 21.3379 3.23188 6.94019 -8.45869
lowerback 2.63981 1.94522 5.27387
upperback -0.0326244 2.80141 2.74004
thorax -1.3996 1.37193 -0.23824
lowerneck -20.2246 0.767631 4.8764
upperneck 21.4399 1.16226 -6.37241
head 10.2584 0.168872 -2.91446
rclavicle 5.30371e-014 3.19628e-014
rhumerus -35.2898 -4.69974 -82.1744
rradius 29.5534
rwrist -6.82897
rhand -18.8354 -3.62026
rfingers 7.12502
rthumb 7.46403 -33.4686
lclavicle 5.30371e-014 3.19628e-014
lhumerus -41.9343 1.41399 84.2426
lradius 36.1489
lwrist 15.3955
lhand -14.4289 -2.5906
lfingers 7.12502
lthumb 11.7155 27.0618
rfemur 13.2084 -3.34219 32.9848
rtibia 9.09492
rfoot -8.97999 -18.0596
rtoes -12.4282
lfemur -30.7618 -2.44832 -9.77129
ltibia 28.1904
lfoot -10.1631 5.56191
ltoes -19.9814
1230
root 0.980448 17.8785 21.4117 3.31487 6.86216 -8.38649
lowerback 2.6291 1.80933 5.05005
upperback -0.0173199 2.61174 2.73016
thorax -1.39506 1.27918 -0.117585
lowerneck -20.2873 0.996419 5.23178
upperneck 21.4223 1.41542 -6.57012
head 10.2845 0.289818 -3.00907
rclavicle -7.0522e-015 1.28216e-014
rhumerus -35.1367 -4.10077 -82.5035
rradius 29.5521
rwrist -6.81023
rhand -18.8561 -3.57097
rfingers 7.12502
rthumb 7.44404 -33.42
lclavicle -7.0522e-015 1.28216e-014
lhumerus -41.973 1.8836 83.9555
lradius 36.0845
lwrist 15.3002
lhand -14.4356 -2.60347
lfingers 7.12502
lthumb 11.7091 27.0493
rfemur 13.3945 -3.26187 32.7626
rtibia 9.08042
rfoot -8.71471 -17.8084
rtoes -12.9565
lfemur -30.5749 -2.40245 -9.92333
ltibia 28.1919
lfoot -9.96473 5.35903
ltoes -20.0193
